<svg width="384" height="370" viewBox="0 0 384 370" fill="none" xmlns="http://www.w3.org/2000/svg">
<g clip-path="url(#clip0)">
<g clip-path="url(#clip1)">
<path d="M158.858 275.802L157.511 276.757L155.305 280.883C155.087 281.353 153.415 281.041 151.576 280.189C149.737 279.338 148.418 278.264 148.636 277.794L150.273 273.456L150.107 271.749C151.861 273.672 156.357 275.716 158.858 275.802V275.802ZM154.7 257.62L152.347 264.585C153.149 263.672 154.597 262.61 155.812 262.647C156.211 262.658 156.549 262.815 156.778 263.152C156.98 263.438 157.058 263.878 157.023 264.023C156.928 264.395 156.695 264.455 156.563 264.393C156.404 264.32 156.395 264.021 156.382 263.841C156.344 263.355 156.024 263.187 155.557 263.28C155.07 263.375 154.548 263.672 154.147 263.955C153.662 264.295 153.198 264.702 152.823 265.151C152.606 265.411 152.312 265.852 152.304 266.188C152.303 266.329 152.348 266.44 152.475 266.499C152.739 266.621 153.286 266.451 153.557 266.351C153.905 266.224 154.383 265.996 154.609 265.812L155.263 265.12C155.567 264.824 155.924 265.066 155.787 265.362C155.537 265.901 155.258 265.991 154.409 266.951C153.625 267.84 153.376 268.129 153.376 268.129C153.27 268.26 153.012 268.442 152.859 268.371C152.796 268.342 152.758 268.298 152.751 268.244C152.733 268.145 152.833 267.942 152.863 267.891C152.952 267.727 153.739 266.872 153.866 266.738C153.706 266.806 153.541 266.87 153.366 266.93C152.956 267.068 152.332 267.209 151.941 267.028C151.761 266.945 151.667 266.843 151.593 266.713L150.046 271.105C150.029 271.418 151.699 272.968 154.289 274.167C156.883 275.369 159.148 275.635 159.368 275.422L162.259 270.69C161.831 270.825 161.325 271.002 160.861 270.992C160.52 270.982 159.849 270.767 160.081 270.265C160.209 269.991 160.924 269.706 161.369 269.482C161.484 269.426 161.761 269.285 161.815 269.169C161.886 269.015 161.552 268.906 161.136 269.014C160.9 269.079 160.654 269.196 160.438 269.314C160.064 269.526 159.816 269.744 159.61 269.925C158.935 270.524 159.183 270.279 158.591 270.865C158.001 271.445 158.08 271.386 157.973 271.478C157.879 271.556 157.771 271.609 157.652 271.617C157.527 271.624 157.392 271.555 157.337 271.452C157.304 271.399 157.314 271.32 157.358 271.225C157.381 271.177 157.408 271.132 157.44 271.09C157.669 270.804 158.296 270.324 159.073 269.644C159.248 269.488 159.189 269.531 159.171 269.542C158.697 269.708 158.377 269.746 158.153 269.745C157.783 269.74 157.403 269.564 157.487 269.173C157.492 269.149 157.502 269.128 157.506 269.105C156.657 269.302 155.936 269.128 156.647 268.187C156.204 268.508 155.617 268.666 155.099 268.426C154.882 268.326 154.758 268.179 154.769 267.946C154.783 267.599 155.203 267.191 155.595 266.801C155.795 266.605 156.049 266.376 156.367 266.119C156.535 265.978 156.721 265.936 156.879 266.067C156.905 266.092 156.927 266.115 156.946 266.143C157.039 266.302 156.92 266.42 156.786 266.531C156.401 266.834 156.092 267.044 155.785 267.403C155.657 267.555 155.459 267.829 155.644 267.915C155.771 267.974 155.912 267.988 156.067 267.957C156.394 267.89 156.714 267.711 156.984 267.515C157.178 267.374 157.42 267.184 157.581 267.002C157.649 266.925 157.72 266.855 157.794 266.793C157.913 266.688 158.056 266.587 158.194 266.651C158.262 266.682 158.308 266.736 158.326 266.808C158.362 266.966 158.285 267.078 158.178 267.183C157.935 267.43 157.67 267.628 157.405 267.896C157.25 268.049 157.066 268.253 156.976 268.448C156.893 268.628 157.108 268.676 157.306 268.678C157.46 268.679 157.628 268.648 157.775 268.607C157.959 268.377 157.916 268.428 160.84 265.649C160.989 265.506 161.15 265.491 161.277 265.55C161.34 265.579 161.383 265.625 161.419 265.686C161.477 265.797 161.409 265.945 161.32 266.038C161.237 266.122 161.257 266.092 160.825 266.483C160.254 266.995 159.862 267.372 159.347 267.846C159.134 268.042 158.478 268.656 158.342 268.811C158.256 268.913 158.131 269.086 158.252 269.142C158.538 269.275 159.593 268.922 159.889 268.809C159.907 268.798 159.925 268.8 159.951 268.8C160.03 268.714 160.105 268.634 160.176 268.551C160.343 268.384 160.519 268.183 160.733 268.083C160.799 268.05 160.862 268.04 160.914 268.065C161.062 268.133 161.107 268.231 161.038 268.379C161.012 268.437 160.877 268.631 160.829 268.68C160.939 268.635 161.055 268.592 161.177 268.552C162.309 268.185 162.701 268.822 162.53 269.192C162.349 269.583 161.626 269.909 161.228 270.09C161.097 270.152 160.837 270.256 160.807 270.306C160.775 270.375 160.81 270.423 160.879 270.455C160.985 270.504 161.303 270.427 161.417 270.403C161.777 270.319 162.283 270.168 162.639 270.064L166.77 263.197C164.739 263.354 155.906 259.269 154.7 257.62V257.62ZM167.047 262.793C166.533 263.902 154.315 258.244 154.829 257.134C155.044 256.669 157.956 257.561 161.327 259.123C161.803 259.343 162.265 259.564 162.707 259.788L164.565 257.523L169.383 255.615C169.491 255.575 169.694 255.746 169.82 256.042C169.946 256.338 169.976 256.621 169.873 256.663L169.865 256.666L165.356 258.46L163.832 260.366C165.877 261.48 167.206 262.449 167.047 262.793ZM163.267 261.337C163.286 261.295 163.256 261.236 163.186 261.165L163.156 261.202C163.124 261.271 162.833 261.207 162.511 261.057C162.188 260.908 161.951 260.728 161.983 260.659C161.985 260.654 161.988 260.648 161.995 260.646L162.023 260.613C161.913 260.601 161.83 260.614 161.808 260.662C161.757 260.772 162.045 261.009 162.442 261.192C162.846 261.386 163.215 261.448 163.267 261.337V261.337Z" fill="black" fill-opacity="0.5"/>
</g>
</g>
<g clip-path="url(#clip2)">
<path d="M364.706 337.467L355.829 356.538L361.627 363.077L370.235 364.856L382.313 347.632L364.706 337.467ZM375.452 351.49L367.024 346.624L365.905 348.998L373.956 353.646L369.404 360.091L364.201 358.737L364.193 358.751L364.142 358.722L360.339 354.857L362.071 351.223L364.258 352.486L363.41 354.325L365.479 356.406L368.325 357.163L370.247 354.47L362.594 350.052L365.862 343.037L376.916 349.419L375.452 351.49V351.49Z" fill="black" fill-opacity="0.5"/>
</g>
<g clip-path="url(#clip3)">
<path d="M144.36 20.7053L147.565 19.1278L144.066 16.0643L144.36 20.7053ZM141.075 9.98721L133.876 17.4181L140.921 28.3545L150.349 28.8282L155.724 21.0673L151.354 8.81425L141.075 9.98721ZM153.626 21.6664L151.582 22.6726L149.127 20.4645L144.475 22.7542L144.727 26.047L142.679 27.0552L142.099 12.069L153.626 21.6664Z" fill="black" fill-opacity="0.5"/>
</g>
<g clip-path="url(#clip4)">
<path d="M290.894 9.20645L284.012 24.8265L288.679 29.9346L295.499 31.1066L304.933 16.8818L290.894 9.20645ZM300.692 18.4808L299.541 20.1682L294.31 19.7223L294.297 19.72L298.373 21.9487L294.883 27.22L290.702 26.3392L287.692 23.2635L288.981 20.3494L290.769 21.3268L290.096 22.8348L291.745 24.3876L294.062 24.9003L295.467 22.6518L289.398 19.309L289.4 19.3052L289.39 19.305L290.213 17.4874L295.274 17.9674L295.567 17.9955L291.074 15.539L291.837 13.6397L300.692 18.4808Z" fill="black" fill-opacity="0.5"/>
<path d="M301.105 18.7625L301.416 18.3067L300.932 18.0421L292.077 13.201L291.583 12.931L291.373 13.4534L290.61 15.3526L290.445 15.7647L290.834 15.9777L293.194 17.2679L290.26 16.9896L289.905 16.9559L289.758 17.2812L288.935 19.0988L288.897 19.1826L288.72 19.5065L288.744 19.5199L288.624 19.7865L288.682 19.788L288.524 20.1471L287.234 23.0612L287.097 23.3711L287.334 23.6132L290.344 26.6889L290.45 26.7972L290.599 26.8285L294.78 27.7092L295.113 27.7792L295.3 27.496L298.79 22.2247L299.09 21.771L298.613 21.51L296.621 20.4211L299.499 20.6663L299.79 20.6911L299.954 20.4498L301.105 18.7625ZM289.011 19.7959L289.256 19.8019L294.763 22.8349L293.825 24.3358L291.987 23.9291L290.697 22.7142L291.225 21.5305L291.413 21.1093L291.008 20.8881L289.221 19.9107L289.011 19.7959ZM284.6 24.7298L291.132 9.9064L304.215 17.0592L295.262 30.5587L288.933 29.4709L284.6 24.7298Z" stroke="black" stroke-opacity="0.5"/>
</g>
<g clip-path="url(#clip5)">
<path d="M355.375 75.4377L357.854 75.5427C358.113 75.5558 358.33 75.3527 358.343 75.0933L359.15 55.9848C359.163 55.7255 358.96 55.5087 358.7 55.4956L356.221 55.3906C355.962 55.3775 355.745 55.5806 355.732 55.84L354.925 74.9485C354.916 75.2091 355.114 75.4283 355.375 75.4377V75.4377ZM360.994 72.7048L359.961 70.4449C359.852 70.2061 359.96 69.9211 360.205 69.8181L364.553 67.9967L362.192 63.9169C362.059 63.6868 362.142 63.393 362.377 63.2702L364.565 62.0946C364.792 61.973 365.077 62.0566 365.201 62.288L368.853 69.0817C368.983 69.3193 368.883 69.6191 368.635 69.7296L361.617 72.9352C361.378 73.0444 361.099 72.9423 360.994 72.7048V72.7048ZM348.873 68.6491L345.222 61.8516C345.092 61.614 345.193 61.3142 345.44 61.2037L352.46 57.9944C352.693 57.8877 352.972 57.9898 353.083 58.2248L354.115 60.4847C354.224 60.7235 354.116 61.0085 353.871 61.1115L349.522 62.9366L351.883 67.0164C352.016 67.2465 351.933 67.5403 351.698 67.6631L349.51 68.8387C349.282 68.964 348.998 68.8767 348.873 68.6491V68.6491Z" fill="black" fill-opacity="0.5"/>
<path d="M357.845 75.0419L358.649 55.9938L356.23 55.8914L355.426 74.9395L357.845 75.0419ZM355.375 75.4377L355.395 74.9683L355.392 74.9682L355.375 75.4377ZM355.393 74.9381L355.392 74.9653L355.395 74.9654L355.396 74.9384C355.395 74.9382 355.394 74.9381 355.393 74.9381ZM364.986 67.7462L365.27 68.2382L364.746 68.4578L360.43 70.2663L361.435 72.4684L368.397 69.2887L364.774 62.55L362.642 63.6955L364.986 67.7462ZM361.45 72.5018C361.45 72.5004 361.449 72.4988 361.448 72.4972L361.422 72.5091L361.422 72.5092L360.994 72.7048L361.424 72.5136L361.424 72.5135L361.45 72.5018ZM352.641 58.4613L345.678 61.6446L349.298 68.3847L351.434 67.2378L349.09 63.1871L348.805 62.6954L349.329 62.4756L353.647 60.6633L352.641 58.4613Z" stroke="black" stroke-opacity="0.5"/>
</g>
<g clip-path="url(#clip6)">
<path d="M15.4731 122.99L14.1019 123.781C13.3746 124.201 12.845 124.895 12.6296 125.709C12.4141 126.524 12.5306 127.393 12.9533 128.125L13.5755 129.203C13.7164 129.447 13.7553 129.737 13.6836 130.009L13.142 132.056C13.1064 132.19 13.0976 132.331 13.1161 132.469C13.1346 132.607 13.1801 132.74 13.2498 132.861C13.3196 132.982 13.4124 133.088 13.5228 133.173C13.6332 133.258 13.7591 133.321 13.8934 133.357L15.9372 133.912C16.0715 133.949 16.1974 134.011 16.3079 134.096C16.4183 134.181 16.5111 134.287 16.5809 134.408L17.2033 135.486C17.626 136.218 18.3203 136.754 19.1335 136.974C19.9466 137.195 20.8121 137.083 21.5394 136.663L22.9106 135.872C23.0319 135.802 23.1201 135.686 23.156 135.55C23.1919 135.415 23.1725 135.27 23.1021 135.148L22.5708 134.228C22.5004 134.106 22.3847 134.016 22.2491 133.98C22.1136 133.943 21.9694 133.961 21.8481 134.031L20.4769 134.823C20.2345 134.963 19.946 135 19.6749 134.927C19.4039 134.853 19.1724 134.675 19.0315 134.431L18.4093 133.353C18.2 132.99 17.9217 132.672 17.5905 132.417C17.2592 132.162 16.8814 131.974 16.4787 131.865L15.4568 131.587L15.7276 130.563C15.8342 130.16 15.8606 129.739 15.805 129.324C15.7495 128.91 15.6131 128.51 15.4038 128.147L14.7815 127.07C14.6406 126.825 14.6018 126.536 14.6736 126.264C14.7454 125.993 14.922 125.762 15.1644 125.622L16.5356 124.83C16.6569 124.76 16.7451 124.644 16.781 124.509C16.8169 124.373 16.7975 124.228 16.7271 124.106L16.1958 123.186C16.1254 123.064 16.0097 122.975 15.8741 122.938C15.7386 122.901 15.5944 122.92 15.4731 122.99V122.99ZM29.0611 122.865L27.0174 122.31C26.7461 122.237 26.5145 122.058 26.3734 121.814L25.7512 120.736C25.3285 120.004 24.6342 119.469 23.821 119.248C23.0078 119.027 22.1424 119.139 21.415 119.559L20.0438 120.351C19.9226 120.421 19.8343 120.536 19.7984 120.672C19.7625 120.808 19.7819 120.953 19.8524 121.075L20.3836 121.995C20.4541 122.117 20.5698 122.206 20.7053 122.243C20.8409 122.28 20.9851 122.261 21.1063 122.191L22.4775 121.399C22.72 121.259 23.0085 121.222 23.2795 121.296C23.5506 121.369 23.782 121.548 23.9229 121.792L24.545 122.869C24.7543 123.232 25.0326 123.55 25.3639 123.805C25.6952 124.061 26.0731 124.249 26.476 124.358L27.4977 124.635L27.2272 125.659C27.1204 126.063 27.0941 126.484 27.1496 126.898C27.2051 127.313 27.3414 127.713 27.5507 128.075L28.1729 129.153C28.3138 129.397 28.3526 129.687 28.2808 129.958C28.209 130.23 28.0325 130.461 27.79 130.601L26.4188 131.393C26.2976 131.463 26.2093 131.578 26.1734 131.714C26.1375 131.85 26.1569 131.994 26.2274 132.117L26.7586 133.037C26.8291 133.159 26.9448 133.248 27.0803 133.285C27.2159 133.321 27.3601 133.303 27.4813 133.233L28.8525 132.441C29.5799 132.021 30.1095 131.328 30.3249 130.513C30.5403 129.698 30.4239 128.83 30.0012 128.097L29.3788 127.019C29.309 126.898 29.2636 126.765 29.2451 126.627C29.2266 126.489 29.2355 126.348 29.2711 126.214L29.8125 124.166C29.8481 124.032 29.8569 123.892 29.8383 123.754C29.8198 123.615 29.7744 123.482 29.7046 123.361C29.6348 123.24 29.5421 123.134 29.4317 123.049C29.3213 122.964 29.1953 122.901 29.0611 122.865Z" fill="black" fill-opacity="0.5"/>
</g>
<path d="M240.237 58.9984C239.963 58.907 239.688 58.8207 239.414 58.7395C239.46 58.5516 239.5 58.3637 239.541 58.1758C240.166 55.1492 239.754 52.7168 238.368 51.9145C237.032 51.1477 234.854 51.9449 232.65 53.8645C232.432 54.0523 232.218 54.2504 232.015 54.4484C231.878 54.3164 231.736 54.1844 231.594 54.0574C229.283 52.0059 226.968 51.1426 225.581 51.95C224.251 52.7219 223.855 55.0121 224.413 57.8762C224.469 58.1606 224.53 58.4398 224.601 58.7242C224.276 58.8156 223.956 58.9172 223.657 59.0238C220.945 59.9633 219 61.4461 219 62.9797C219 64.5641 221.072 66.1535 223.89 67.1184C224.119 67.1945 224.347 67.2707 224.581 67.3367C224.505 67.6414 224.439 67.941 224.378 68.2508C223.845 71.0691 224.261 73.3035 225.591 74.0703C226.963 74.8625 229.268 74.05 231.512 72.0848C231.69 71.9274 231.868 71.7649 232.046 71.5922C232.269 71.8106 232.503 72.0188 232.736 72.2219C234.91 74.0906 237.058 74.8473 238.383 74.0805C239.754 73.2883 240.201 70.8863 239.622 67.9613C239.577 67.7379 239.526 67.5094 239.47 67.2758C239.632 67.2301 239.79 67.1793 239.947 67.1285C242.877 66.1586 245 64.5895 245 62.9797C245 61.441 242.999 59.9481 240.237 58.9984V58.9984ZM233.366 54.6871C235.255 53.0418 237.017 52.3969 237.82 52.859C238.678 53.3516 239.008 55.3422 238.47 57.9574C238.434 58.1301 238.398 58.2977 238.353 58.4652C237.225 58.2113 236.083 58.0285 234.935 57.927C234.275 56.9824 233.554 56.0785 232.772 55.2305C232.97 55.0426 233.163 54.8649 233.366 54.6871V54.6871ZM227.491 65.6152C227.75 66.057 228.014 66.4988 228.293 66.9305C227.501 66.8441 226.714 66.7172 225.937 66.5496C226.16 65.8184 226.439 65.0617 226.764 64.2898C226.998 64.7367 227.237 65.1785 227.491 65.6152V65.6152ZM225.952 59.5063C226.683 59.3438 227.46 59.2117 228.268 59.1102C227.998 59.5316 227.734 59.9633 227.486 60.4C227.237 60.8316 226.993 61.2734 226.764 61.7203C226.445 60.9637 226.175 60.2223 225.952 59.5063ZM227.343 63.0051C227.679 62.3043 228.044 61.6188 228.43 60.9434C228.816 60.268 229.232 59.6129 229.669 58.968C230.431 58.9121 231.208 58.8816 232 58.8816C232.792 58.8816 233.574 58.9121 234.331 58.968C234.762 59.6078 235.174 60.2629 235.565 60.9332C235.956 61.6035 236.321 62.2891 236.667 62.9848C236.327 63.6856 235.961 64.3762 235.57 65.0566C235.184 65.732 234.773 66.3871 234.341 67.0371C233.584 67.093 232.797 67.1184 232 67.1184C231.203 67.1184 230.431 67.093 229.684 67.0473C229.243 66.4024 228.826 65.7422 228.435 65.0668C228.044 64.3914 227.684 63.7059 227.343 63.0051ZM236.514 65.6051C236.773 65.1582 237.017 64.7063 237.256 64.2492C237.581 64.9856 237.865 65.732 238.114 66.4988C237.327 66.6766 236.53 66.8137 235.727 66.9051C236.002 66.4785 236.261 66.0418 236.514 65.6051ZM237.246 61.7203C237.007 61.2734 236.763 60.8266 236.509 60.3899C236.261 59.9582 236.002 59.5316 235.732 59.1102C236.55 59.2117 237.332 59.3488 238.063 59.5164C237.83 60.268 237.555 60.9992 237.246 61.7203V61.7203ZM232.01 56.0074C232.543 56.5863 233.046 57.1957 233.513 57.8254C232.508 57.7797 231.497 57.7797 230.492 57.8254C230.989 57.1703 231.502 56.5609 232.01 56.0074ZM226.12 52.8945C226.973 52.3969 228.867 53.1078 230.863 54.875C230.989 54.9867 231.116 55.1086 231.248 55.2305C230.461 56.0785 229.735 56.9824 229.07 57.927C227.922 58.0285 226.785 58.2063 225.657 58.4551C225.591 58.1961 225.536 57.932 225.48 57.668C225.002 55.2102 225.317 53.3566 226.12 52.8945V52.8945ZM224.875 66.2805C224.662 66.2195 224.454 66.1535 224.246 66.0824C223.164 65.7422 221.935 65.2039 221.046 64.4981C220.534 64.1426 220.188 63.5941 220.092 62.9797C220.092 62.0504 221.696 60.8621 224.012 60.0547C224.302 59.9531 224.596 59.8617 224.891 59.7754C225.236 60.8773 225.652 61.959 226.135 63.0051C225.647 64.0664 225.226 65.1633 224.875 66.2805V66.2805ZM230.796 71.257C229.959 72.0238 228.989 72.6332 227.932 73.0496C227.369 73.3188 226.719 73.3441 226.14 73.1156C225.332 72.6484 224.997 70.8559 225.454 68.4438C225.51 68.1594 225.571 67.875 225.642 67.5957C226.78 67.8395 227.927 68.007 229.09 68.0934C229.761 69.043 230.497 69.952 231.284 70.8051C231.121 70.9625 230.959 71.1149 230.796 71.257ZM232.041 70.0231C231.523 69.4645 231.005 68.8449 230.502 68.1797C230.989 68.2 231.492 68.2102 232 68.2102C232.523 68.2102 233.036 68.2 233.544 68.1746C233.077 68.8195 232.574 69.434 232.041 70.0231V70.0231ZM238.678 71.5465C238.632 72.166 238.327 72.7449 237.84 73.1359C237.032 73.6031 235.311 72.9938 233.452 71.3992C233.239 71.2164 233.026 71.0184 232.807 70.8152C233.584 69.957 234.3 69.0481 234.95 68.0934C236.113 67.9969 237.271 67.8191 238.414 67.5602C238.464 67.7684 238.51 67.9766 238.551 68.1797C238.8 69.2766 238.84 70.4191 238.678 71.5465V71.5465ZM239.602 66.0875C239.46 66.1332 239.318 66.1789 239.17 66.2195C238.815 65.1125 238.378 64.0309 237.875 62.9797C238.363 61.9438 238.774 60.8773 239.12 59.7856C239.384 59.8617 239.638 59.943 239.881 60.0242C242.248 60.8367 243.908 62.0453 243.908 62.9695C243.908 63.9648 242.136 65.2496 239.602 66.0875ZM232 65.3258C233.285 65.3258 234.326 64.2848 234.326 63C234.326 61.7152 233.285 60.6742 232 60.6742C230.715 60.6742 229.674 61.7152 229.674 63C229.674 64.2848 230.715 65.3258 232 65.3258Z" fill="black" fill-opacity="0.5"/>
<path d="M88.2367 344.998C87.9625 344.907 87.6883 344.821 87.4141 344.739C87.4598 344.552 87.5004 344.364 87.541 344.176C88.1656 341.149 87.7543 338.717 86.368 337.914C85.0324 337.148 82.8539 337.945 80.65 339.864C80.4316 340.052 80.2184 340.25 80.0152 340.448C79.8781 340.316 79.7359 340.184 79.5938 340.057C77.2832 338.006 74.9676 337.143 73.5813 337.95C72.2508 338.722 71.8547 341.012 72.4133 343.876C72.4691 344.161 72.5301 344.44 72.6012 344.724C72.2762 344.816 71.9562 344.917 71.6566 345.024C68.9449 345.963 67 347.446 67 348.98C67 350.564 69.0719 352.154 71.8902 353.118C72.1188 353.195 72.3473 353.271 72.5809 353.337C72.5047 353.641 72.4387 353.941 72.3777 354.251C71.8445 357.069 72.2609 359.304 73.5914 360.07C74.9625 360.863 77.268 360.05 79.5125 358.085C79.6902 357.927 79.868 357.765 80.0457 357.592C80.2691 357.811 80.5027 358.019 80.7363 358.222C82.9098 360.091 85.0578 360.847 86.3832 360.08C87.7543 359.288 88.2012 356.886 87.6223 353.961C87.5766 353.738 87.5258 353.509 87.4699 353.276C87.6324 353.23 87.7898 353.179 87.9473 353.129C90.8773 352.159 93 350.589 93 348.98C93 347.441 90.9992 345.948 88.2367 344.998V344.998ZM81.366 340.687C83.2551 339.042 85.0172 338.397 85.8195 338.859C86.6777 339.352 87.0078 341.342 86.4695 343.957C86.434 344.13 86.3984 344.298 86.3527 344.465C85.2254 344.211 84.0828 344.029 82.9352 343.927C82.275 342.982 81.5539 342.079 80.7719 341.23C80.9699 341.043 81.1629 340.865 81.366 340.687V340.687ZM75.4906 351.615C75.7496 352.057 76.0137 352.499 76.293 352.93C75.5008 352.844 74.7137 352.717 73.9367 352.55C74.1602 351.818 74.4395 351.062 74.7645 350.29C74.998 350.737 75.2367 351.179 75.4906 351.615V351.615ZM73.952 345.506C74.6832 345.344 75.4602 345.212 76.2676 345.11C75.9984 345.532 75.7344 345.963 75.4855 346.4C75.2367 346.832 74.993 347.273 74.7645 347.72C74.4445 346.964 74.1754 346.222 73.952 345.506ZM75.3434 349.005C75.6785 348.304 76.0441 347.619 76.4301 346.943C76.816 346.268 77.2324 345.613 77.6691 344.968C78.4309 344.912 79.2078 344.882 80 344.882C80.7922 344.882 81.5742 344.912 82.3309 344.968C82.7625 345.608 83.1738 346.263 83.5648 346.933C83.9559 347.604 84.3215 348.289 84.6668 348.985C84.3266 349.686 83.9609 350.376 83.5699 351.057C83.184 351.732 82.7727 352.387 82.341 353.037C81.5844 353.093 80.7973 353.118 80 353.118C79.2027 353.118 78.4309 353.093 77.6844 353.047C77.2426 352.402 76.8262 351.742 76.4352 351.067C76.0441 350.391 75.6836 349.706 75.3434 349.005ZM84.5145 351.605C84.7734 351.158 85.0172 350.706 85.2559 350.249C85.5809 350.986 85.8652 351.732 86.1141 352.499C85.327 352.677 84.5297 352.814 83.7273 352.905C84.0016 352.479 84.2605 352.042 84.5145 351.605ZM85.2457 347.72C85.007 347.273 84.7633 346.827 84.5094 346.39C84.2605 345.958 84.0016 345.532 83.7324 345.11C84.55 345.212 85.332 345.349 86.0633 345.516C85.8297 346.268 85.5555 346.999 85.2457 347.72V347.72ZM80.0102 342.007C80.5434 342.586 81.0461 343.196 81.5133 343.825C80.5078 343.78 79.4973 343.78 78.4918 343.825C78.9895 343.17 79.5023 342.561 80.0102 342.007ZM74.1195 338.895C74.9727 338.397 76.8668 339.108 78.8625 340.875C78.9895 340.987 79.1164 341.109 79.2484 341.23C78.4613 342.079 77.7352 342.982 77.0699 343.927C75.9223 344.029 74.7848 344.206 73.6574 344.455C73.5914 344.196 73.5355 343.932 73.4797 343.668C73.0023 341.21 73.3172 339.357 74.1195 338.895V338.895ZM72.8754 352.28C72.6621 352.22 72.4539 352.154 72.2457 352.082C71.1641 351.742 69.9352 351.204 69.0465 350.498C68.5336 350.143 68.1883 349.594 68.0918 348.98C68.0918 348.05 69.6965 346.862 72.0121 346.055C72.3016 345.953 72.5961 345.862 72.8906 345.775C73.2359 346.877 73.6523 347.959 74.1348 349.005C73.6473 350.066 73.2258 351.163 72.8754 352.28V352.28ZM78.7965 357.257C77.9586 358.024 76.9887 358.633 75.9324 359.05C75.3687 359.319 74.7188 359.344 74.1398 359.116C73.3324 358.648 72.9973 356.856 73.4543 354.444C73.5102 354.159 73.5711 353.875 73.6422 353.596C74.7797 353.839 75.9273 354.007 77.0902 354.093C77.7605 355.043 78.4969 355.952 79.284 356.805C79.1215 356.963 78.959 357.115 78.7965 357.257ZM80.0406 356.023C79.5227 355.464 79.0047 354.845 78.502 354.18C78.9895 354.2 79.4922 354.21 80 354.21C80.523 354.21 81.0359 354.2 81.5437 354.175C81.0766 354.82 80.5738 355.434 80.0406 356.023V356.023ZM86.6777 357.546C86.632 358.166 86.3273 358.745 85.8398 359.136C85.0324 359.603 83.3109 358.994 81.4523 357.399C81.2391 357.216 81.0258 357.018 80.8074 356.815C81.5844 355.957 82.3004 355.048 82.9504 354.093C84.1133 353.997 85.2711 353.819 86.4137 353.56C86.4645 353.768 86.5102 353.977 86.5508 354.18C86.7996 355.277 86.8402 356.419 86.6777 357.546V357.546ZM87.602 352.087C87.4598 352.133 87.3176 352.179 87.1703 352.22C86.8148 351.113 86.3781 350.031 85.8754 348.98C86.3629 347.944 86.7742 346.877 87.1195 345.786C87.3836 345.862 87.6375 345.943 87.8813 346.024C90.2477 346.837 91.9082 348.045 91.9082 348.97C91.9082 349.965 90.1359 351.25 87.602 352.087ZM80 351.326C81.2848 351.326 82.3258 350.285 82.3258 349C82.3258 347.715 81.2848 346.674 80 346.674C78.7152 346.674 77.6742 347.715 77.6742 349C77.6742 350.285 78.7152 351.326 80 351.326Z" fill="black" fill-opacity="0.5"/>
<g clip-path="url(#clip7)">
<path d="M289.093 135.445C289.258 135.823 289.672 136.015 289.672 136.015C289.543 135.734 289.489 135.515 289.476 135.342C289.702 135.7 290.073 136.11 290.637 136.287C291.042 136.413 292.399 136.374 292.743 135.361C292.829 135.425 292.928 135.505 293.026 135.6C293.342 135.906 293.447 136.555 293.447 136.555C293.447 136.555 293.641 135.633 293.282 135.111C293.662 134.868 293.883 134.367 293.644 133.979C293.644 133.979 293.175 134.742 292.183 134.406C291.603 134.21 289.846 133.765 288.532 135.006C288.707 134.952 288.902 134.906 289.103 134.871L289.099 134.873C288.989 135.031 289.01 135.261 289.093 135.445V135.445ZM290.077 134.792C291.006 134.776 291.954 134.926 292.456 135.171C292.318 135.407 291.886 135.993 291.05 135.902C290.522 135.847 290.159 135.175 290.077 134.792ZM296.144 133.46C296.419 134.035 297.312 134.325 297.312 134.325C297.312 134.325 296.803 133.909 296.696 133.482C296.663 133.35 296.645 133.227 296.63 133.118C297.681 133.33 298.393 132.172 298.483 131.76C298.612 131.183 298.439 130.658 298.246 130.282C298.389 130.379 298.555 130.534 298.73 130.788C298.73 130.788 298.775 130.332 298.527 130.002C298.402 129.836 298.217 129.707 298.032 129.728L298.028 129.73C298.158 129.57 298.295 129.425 298.432 129.303C296.696 129.822 296.205 131.564 296.084 132.164C295.875 133.194 294.984 133.216 294.984 133.216C295.2 133.607 295.746 133.67 296.144 133.46V133.46ZM297.468 130.527C297.763 130.788 298.159 131.44 297.941 131.93C297.601 132.7 296.882 132.778 296.606 132.776C296.643 132.215 296.99 131.324 297.468 130.527ZM297.353 141.532L296.292 142.144C296.094 142.259 296.029 142.372 296.009 142.445C295.981 142.556 296.026 142.658 296.142 142.752C296.455 143.002 296.892 143.101 297.018 143.127C297.185 143.159 297.377 143.124 297.532 143.034C297.691 142.943 297.797 142.801 297.835 142.642C297.937 142.194 297.914 141.786 297.898 141.668C297.889 141.602 297.853 141.481 297.726 141.445C297.624 141.418 297.501 141.447 297.353 141.532V141.532ZM302.107 133.997C302.387 134.683 302.33 135.468 302.115 136.062C301.538 135.32 300.844 134.167 300.702 133.922C300.401 133.4 300.543 132.854 300.607 132.741C300.667 132.635 300.741 132.522 300.813 132.404C301.265 131.689 301.828 130.796 301.375 130.011C301.043 129.435 300.564 129.38 300.249 129.344C300.208 129.339 300.173 129.336 300.135 129.329C300.024 129.313 299.94 129.3 299.89 129.262C299.53 129.006 299.059 128.122 299.057 127.962C299.067 127.928 299.232 126.872 298.68 126.324C298.456 126.102 298.158 125.995 297.822 126.013C297.576 126.028 297.307 126.112 297.026 126.26C296.982 126.191 296.928 126.131 296.873 126.069C296.798 125.989 296.725 125.903 296.675 125.8C296.593 125.624 296.519 125.463 296.522 125.352C296.553 124.705 297.201 124.127 297.208 124.123L297.603 123.782L297.116 123.613C297.108 123.608 296.133 123.352 295.086 123.956C294.801 124.12 294.535 124.335 294.296 124.596C293.583 125.377 293.373 126.573 293.319 127.021C293.187 127.05 293.053 127.085 292.917 127.125C292.442 126.651 292.453 125.57 292.453 125.57C292.453 125.57 291.9 125.746 291.548 126.811C291.321 126.635 290.836 126.252 290.721 125.527C289.869 126.511 289.928 127.23 290.144 127.788C289.759 127.754 289.429 127.106 289.318 126.957C289.066 127.145 288.713 128.343 289.291 129.26C289.229 129.32 289.172 129.38 289.113 129.443C288.698 129.266 287.561 128.847 286.524 129.076C286.194 129.162 285.875 129.285 285.59 129.449C284.543 130.053 284.281 131.024 284.278 131.035L284.178 131.538L284.671 131.367C284.678 131.363 285.503 131.091 286.078 131.388C286.174 131.437 286.279 131.585 286.389 131.744C286.454 131.839 286.488 131.948 286.523 132.05C286.548 132.126 286.574 132.206 286.611 132.279C286.34 132.45 286.136 132.638 286 132.845C285.816 133.126 285.76 133.438 285.84 133.742C286.032 134.493 287.033 134.877 287.069 134.889C287.207 134.97 287.736 135.82 287.778 136.26C287.785 136.322 287.754 136.402 287.713 136.506C287.698 136.538 287.685 136.574 287.669 136.612C287.543 136.903 287.353 137.349 287.683 137.921C288.136 138.706 289.19 138.666 290.037 138.632C290.178 138.626 290.31 138.621 290.431 138.622C290.561 138.623 291.105 138.773 291.406 139.296C291.547 139.541 292.198 140.718 292.552 141.589C291.93 141.479 291.219 141.132 290.766 140.546C290.766 140.546 290.175 141.957 291.474 143.49C292.266 144.43 293.256 144.644 294.291 144.454C295 144.95 296.289 145.466 297.737 144.815C298.498 144.934 299.378 144.791 300.432 144.183L300.439 144.179C301.489 143.573 302.053 142.883 302.335 142.162C303.623 141.234 303.821 139.86 303.747 138.998C304.427 138.194 304.735 137.235 304.322 136.076C303.625 134.186 302.107 133.997 302.107 133.997V133.997ZM294.805 124.97C294.971 124.789 295.169 124.632 295.389 124.505C295.786 124.276 296.169 124.198 296.383 124.169C296.3 124.283 296.217 124.416 296.141 124.559C296.047 124.595 295.923 124.647 295.793 124.722C295.414 124.941 295.117 125.259 294.94 125.636C294.674 126.201 294.636 126.611 294.652 126.863C294.546 126.862 294.438 126.868 294.32 126.879C294.245 126.884 294.177 126.89 294.105 126.899C294.138 126.449 294.28 125.543 294.805 124.97V124.97ZM295.936 125.179C295.928 125.231 295.922 125.287 295.919 125.341C295.906 125.594 296.016 125.834 296.125 126.065C296.238 126.302 296.342 126.532 296.315 126.76C296.18 126.876 296.057 126.989 295.955 127.096C295.808 127.033 295.609 126.964 295.347 126.916C295.299 126.717 295.215 126.23 295.373 125.836C295.486 125.567 295.675 125.344 295.936 125.179V125.179ZM285.574 130.656C285.41 130.647 285.254 130.652 285.116 130.67C285.248 130.499 285.508 130.207 285.904 129.978C286.125 129.851 286.356 129.76 286.599 129.705C287.36 129.541 288.215 129.871 288.617 130.061C288.574 130.119 288.53 130.177 288.489 130.239C288.423 130.333 288.363 130.43 288.309 130.518C288.104 130.38 287.728 130.204 287.102 130.153C286.684 130.12 286.263 130.216 285.881 130.437C285.76 130.511 285.653 130.592 285.574 130.656V130.656ZM288.01 131.15C287.919 131.401 287.874 131.607 287.86 131.767C287.719 131.805 287.558 131.851 287.39 131.91C287.18 131.823 287.037 131.616 286.888 131.399C286.743 131.189 286.59 130.975 286.364 130.859C286.317 130.834 286.265 130.812 286.216 130.793C286.489 130.649 286.774 130.594 287.063 130.635C287.481 130.693 287.861 131.009 288.01 131.15ZM290.424 138.02C290.294 138.019 290.159 138.026 290.027 138.031C289.325 138.057 288.603 138.081 288.312 137.577C288.084 137.182 288.168 136.968 288.26 136.745L288.27 136.72C288.283 136.684 288.296 136.648 288.312 136.61C288.427 136.885 288.516 137.122 288.52 137.196C288.52 137.196 288.65 136.411 288.179 135.295C287.994 134.857 287.436 134.1 287.113 133.874C287.221 134.044 287.314 134.222 287.398 134.392C287.367 134.372 287.336 134.351 287.306 134.341C287.108 134.265 286.521 133.965 286.421 133.591C286.382 133.448 286.41 133.314 286.503 133.175C286.601 133.028 286.761 132.888 286.989 132.757C287.433 132.501 287.999 132.349 288.299 132.285C289.369 132.047 290.932 132.229 291.385 132.29C291.396 132.293 291.406 132.292 291.406 132.292L291.688 132.314L291.443 132.181C291.429 132.174 290.11 131.463 288.569 131.637C288.582 131.492 288.67 131.195 289.039 130.65C289.596 129.832 290.394 129.121 291.397 128.542C292.404 127.961 293.415 127.629 294.402 127.556C295.056 127.505 295.36 127.581 295.491 127.643C294.574 128.887 294.529 130.386 294.528 130.4L294.521 130.679L294.643 130.424C294.643 130.424 294.648 130.416 294.651 130.405C294.826 129.982 295.448 128.534 296.192 127.731C296.399 127.507 296.812 127.089 297.256 126.833C297.483 126.701 297.684 126.633 297.86 126.621C298.024 126.612 298.156 126.659 298.262 126.759C298.539 127.03 298.505 127.689 298.468 127.9C298.462 127.931 298.462 127.964 298.466 128.005C298.361 127.848 298.254 127.678 298.16 127.499C298.196 127.895 298.572 128.754 298.858 129.133C299.588 130.099 300.332 130.38 300.332 130.38C300.271 130.34 300.11 130.144 299.93 129.907C299.967 129.914 300.008 129.918 300.046 129.925L300.072 129.929C300.314 129.965 300.539 129.996 300.766 130.39C301.058 130.895 300.672 131.51 300.302 132.103C300.228 132.216 300.16 132.331 300.093 132.441C299.881 132.8 299.786 133.409 300.105 134.054C300.371 134.591 301.16 135.808 301.783 136.679C301.434 137.108 300.951 137.463 300.49 137.748C300.334 137.644 300.175 137.527 300.023 137.397C299.957 137.34 298.268 135.99 297.795 135.737C298.793 137.008 299.937 137.991 300.48 138.431C300.343 138.486 300.202 138.558 300.043 138.649L295.821 141.086C295.662 141.177 295.527 141.269 295.413 141.354C295.303 140.664 295.029 139.18 294.424 137.682C294.408 138.221 294.733 140.359 294.747 140.441C294.783 140.638 294.805 140.834 294.817 141.021C294.339 141.278 293.794 141.517 293.244 141.606C292.802 140.631 292.145 139.343 291.811 138.839C291.422 138.24 290.841 138.016 290.424 138.02V138.02ZM292.55 143.646C291.703 143.187 291.127 141.905 291.205 141.623C292.303 142.618 293.816 142.214 294.82 141.687C294.809 141.892 294.789 142.065 294.773 142.188L294.751 142.266C294.651 142.694 294.82 143.103 295.255 143.482C294.434 143.951 293.383 144.098 292.55 143.646V143.646ZM295.091 144.239C295.33 144.153 295.57 144.053 295.811 143.937C296.102 144.149 296.404 144.348 296.729 144.502C296.088 144.592 295.52 144.441 295.091 144.239ZM300.142 143.697C297.953 144.956 296.377 143.701 295.751 143.167C295.403 142.871 295.256 142.591 295.31 142.327C295.347 142.15 295.506 141.874 296.051 141.559L300.338 139.085C300.883 138.771 301.205 138.77 301.373 138.829C301.623 138.912 301.794 139.183 301.879 139.631C302.027 140.436 302.327 142.432 300.142 143.697V143.697ZM302.546 141.145C302.576 140.787 302.554 140.425 302.517 140.068C302.737 139.917 302.945 139.759 303.139 139.595C303.099 140.068 302.945 140.635 302.546 141.145V141.145ZM303.896 137.098C303.867 138.048 303.212 138.881 302.408 139.363C302.298 138.797 302.026 138.443 301.609 138.319C301.584 138.31 301.556 138.302 301.527 138.295C301.413 138.247 301.253 138.178 301.07 138.085C302.027 137.476 303.136 136.372 302.824 134.923C303.107 134.997 303.929 136.137 303.896 137.098V137.098ZM293.773 132.669L293.78 132.664C294.237 132.396 294.397 131.466 294.397 131.466C294.163 131.885 293.885 132.145 293.582 132.329C293.271 132.499 292.907 132.61 292.427 132.603C292.427 132.603 293.311 132.926 293.773 132.669V132.669ZM300.729 139.579L299.668 140.192C299.516 140.279 299.427 140.374 299.402 140.473C299.37 140.6 299.455 140.689 299.507 140.73C299.596 140.801 299.937 141.017 300.372 141.145C300.529 141.191 300.702 141.167 300.861 141.075C301.02 140.984 301.142 140.837 301.201 140.681C301.243 140.562 301.38 140.141 301.324 139.752C301.304 139.608 301.237 139.518 301.13 139.49C301.056 139.471 300.926 139.471 300.729 139.579V139.579Z" fill="black" fill-opacity="0.5"/>
</g>
<g clip-path="url(#clip8)">
<path d="M156.993 122.353L155.469 120.94C155.188 120.68 154.741 120.736 154.535 121.056L152.472 124.267L149.351 121.373C149.07 121.114 148.624 121.169 148.418 121.49L147.297 123.233C147.219 123.354 147.186 123.499 147.205 123.641C147.223 123.784 147.291 123.916 147.397 124.014L150.679 127.056L147.958 131.289L144.837 128.395C144.556 128.136 144.11 128.191 143.904 128.512L142.783 130.255C142.705 130.376 142.673 130.521 142.691 130.663C142.709 130.806 142.777 130.938 142.883 131.036L146.165 134.078L143.983 137.472C143.905 137.593 143.873 137.738 143.891 137.88C143.909 138.023 143.977 138.155 144.083 138.253L145.607 139.666C145.888 139.926 146.334 139.87 146.541 139.549L148.604 136.339L153.483 140.862L151.301 144.256C151.223 144.376 151.191 144.521 151.209 144.664C151.227 144.806 151.295 144.938 151.401 145.036L152.926 146.449C153.206 146.709 153.653 146.653 153.859 146.333L155.922 143.123L159.043 146.016C159.324 146.276 159.77 146.22 159.976 145.899L161.097 144.156C161.175 144.035 161.208 143.891 161.189 143.748C161.171 143.605 161.103 143.473 160.997 143.375L157.715 140.333L160.436 136.101L163.557 138.994C163.838 139.254 164.284 139.198 164.49 138.877L165.611 137.134C165.689 137.013 165.721 136.868 165.703 136.726C165.685 136.583 165.617 136.451 165.511 136.353L162.229 133.311L164.411 129.917C164.489 129.796 164.521 129.652 164.503 129.509C164.485 129.366 164.417 129.234 164.311 129.136L162.787 127.723C162.506 127.463 162.06 127.519 161.853 127.84L159.79 131.05L154.911 126.528L157.093 123.134C157.171 123.013 157.203 122.868 157.185 122.726C157.167 122.583 157.099 122.451 156.993 122.353V122.353ZM157.997 133.84L155.276 138.072L150.397 133.55L153.118 129.317L157.997 133.84Z" fill="black" fill-opacity="0.5"/>
</g>
<path d="M298.121 266.984L297.067 266.575L298.491 262.898L294.481 261.344L293.056 265.021L292.007 264.615L295.09 256.66L296.139 257.066L294.813 260.486L298.824 262.04L300.149 258.62L301.203 259.029L298.121 266.984ZM308.064 262.68L305.507 261.689L302.76 268.781L301.716 268.377L304.464 261.285L301.912 260.296L302.247 259.433L308.399 261.817L308.064 262.68ZM310.934 262.799L311.02 270.298L316.135 264.814L317.496 265.342L314.413 273.297L313.364 272.89L314.565 269.792L315.959 266.487L310.851 271.916L310.048 271.605L309.931 264.17L308.746 267.538L307.546 270.635L306.497 270.229L309.579 262.274L310.934 262.799ZM317.652 273.565L321.422 275.026L321.09 275.884L316.265 274.014L319.348 266.059L320.402 266.468L317.652 273.565Z" fill="black" fill-opacity="0.5"/>
<path d="M78.5 75.7969C78.156 75.7969 77.8069 75.7054 77.504 75.5328L74.3364 73.6793C73.8641 73.4152 74.0951 73.3238 74.2491 73.273C74.8806 73.0547 75.0089 73.009 75.6815 72.6281C75.7534 72.5875 75.8458 72.6027 75.9176 72.6484L78.3511 74.0754C78.4384 74.1262 78.5616 74.1262 78.6438 74.0754L88.1261 68.6621C88.2134 68.6113 88.2699 68.5097 88.2699 68.4082V57.5816C88.2699 57.475 88.2134 57.3785 88.121 57.3226L78.6438 51.9144C78.5565 51.8637 78.4384 51.8637 78.3511 51.9144L68.879 57.3277C68.7866 57.3785 68.7301 57.4801 68.7301 57.5867V68.4082C68.7301 68.5097 68.7866 68.6113 68.879 68.657L71.4768 70.1398C72.8886 70.8355 73.7511 70.018 73.7511 69.1902V58.5058C73.7511 58.3535 73.8743 58.2367 74.0284 58.2367H75.2297C75.3786 58.2367 75.5069 58.3535 75.5069 58.5058V69.1953C75.5069 71.0539 74.4801 72.1203 72.6987 72.1203C72.1493 72.1203 71.7181 72.1203 70.5168 71.5312L68.0319 70.1144C67.4159 69.764 67.0359 69.109 67.0359 68.4031V57.5816C67.0359 56.8808 67.4159 56.2207 68.0319 55.8703L77.504 50.457C78.1047 50.1219 78.9005 50.1219 79.496 50.457L88.9784 55.8754C89.5944 56.2258 89.9743 56.8808 89.9743 57.5867V68.4082C89.9743 69.109 89.5944 69.764 88.9784 70.1195L79.496 75.5328C79.1931 75.7054 78.8491 75.7969 78.5 75.7969ZM86.1547 65.1277C86.1547 63.1015 84.7685 62.5633 81.8576 62.1824C78.9107 61.7965 78.613 61.5984 78.613 60.918C78.613 60.3543 78.8645 59.6027 81.0464 59.6027C82.9922 59.6027 83.7109 60.0191 84.0087 61.3191C84.0344 61.441 84.1473 61.5324 84.2757 61.5324H85.5078C85.5848 61.5324 85.6567 61.5019 85.708 61.4461C85.7594 61.3902 85.7851 61.314 85.7799 61.2379C85.59 58.9984 84.0857 57.9574 81.0464 57.9574C78.3409 57.9574 76.7288 59.0848 76.7288 60.9789C76.7288 63.0305 78.3357 63.5992 80.9284 63.8531C84.0344 64.1527 84.2757 64.6047 84.2757 65.209C84.2757 66.2551 83.4234 66.7019 81.4264 66.7019C78.9159 66.7019 78.3665 66.0773 78.1817 64.8433C78.1612 64.7113 78.0482 64.6148 77.9096 64.6148H76.6826C76.5286 64.6148 76.4105 64.7367 76.4105 64.884C76.4105 66.4633 77.2781 68.3472 81.4315 68.3472C84.4297 68.3422 86.1547 67.1691 86.1547 65.1277V65.1277Z" fill="black" fill-opacity="0.5"/>
<g clip-path="url(#clip9)">
<path d="M14.4628 4.90126C6.81151 7.28027 2.52225 15.4404 4.90126 23.0917C7.28028 30.743 15.4405 35.0322 23.0917 32.6532C30.743 30.2742 35.0322 22.114 32.6532 14.4628C30.2742 6.8115 22.114 2.52224 14.4628 4.90126ZM25.6268 8.44761C27.9046 9.95117 29.7029 12.2091 30.5988 14.9985C30.1824 15.0374 26.0167 15.461 22.2273 17.1831C21.6612 16.4976 21.1425 15.9009 20.4617 15.1786C24.2875 12.0269 25.482 8.86331 25.6268 8.44761V8.44761ZM23.883 7.4867C23.7642 7.85664 22.7257 10.8094 19.0024 13.6995C15.9507 10.735 12.8866 8.47293 12.4226 8.13613C15.8995 6.06144 20.1641 5.80698 23.883 7.4867V7.4867ZM10.4088 9.63599C10.8546 9.96736 13.8851 12.2439 16.9344 15.1242C11.8481 18.3203 6.95846 19.8174 6.4262 19.9752C6.05119 16.0584 7.5793 12.231 10.4088 9.63599ZM6.93065 22.4805C6.89297 22.3593 6.85786 22.2379 6.82408 22.1165C7.34594 21.9659 13.1125 20.254 18.4806 16.6423C19.0264 17.2008 19.5601 17.7741 20.0669 18.3549C16.1564 20.8947 13.3403 25.5717 12.4417 29.4579C9.89531 27.9453 7.87717 25.5247 6.93065 22.4805ZM14.4151 30.4075C14.8663 27.4917 17.2104 23.1801 21.4819 20.0643C24.4904 23.871 26.3053 27.281 26.8049 28.266C23.4987 31.0743 18.7776 32.0538 14.4151 30.4075V30.4075ZM28.4601 26.5614C28.1144 25.8782 26.4048 22.6048 23.53 18.8268C27.0592 17.0775 30.6249 17.0361 31.0702 17.038C31.5673 20.5001 30.56 23.9367 28.4601 26.5614Z" fill="black" fill-opacity="0.5"/>
</g>
<g clip-path="url(#clip10)">
<path d="M366.031 196.733C366.031 196.842 365.906 196.93 365.748 196.93C365.568 196.946 365.443 196.859 365.443 196.733C365.443 196.623 365.568 196.536 365.726 196.536C365.889 196.52 366.031 196.607 366.031 196.733ZM364.338 196.487C364.3 196.596 364.409 196.722 364.572 196.755C364.714 196.809 364.877 196.755 364.909 196.645C364.942 196.536 364.839 196.41 364.675 196.361C364.534 196.323 364.376 196.377 364.338 196.487ZM366.744 196.394C366.586 196.432 366.477 196.536 366.494 196.662C366.51 196.771 366.651 196.842 366.815 196.804C366.973 196.766 367.081 196.662 367.065 196.552C367.049 196.448 366.902 196.377 366.744 196.394ZM370.326 175.438C362.776 175.438 357 181.196 357 188.781C357 194.846 360.8 200.036 366.227 201.863C366.924 201.988 367.169 201.556 367.169 201.201C367.169 200.862 367.152 198.991 367.152 197.843C367.152 197.843 363.342 198.663 362.542 196.213C362.542 196.213 361.921 194.622 361.028 194.212C361.028 194.212 359.782 193.353 361.115 193.37C361.115 193.37 362.471 193.479 363.217 194.78C364.409 196.891 366.406 196.284 367.185 195.923C367.31 195.048 367.664 194.441 368.056 194.08C365.013 193.741 361.943 193.298 361.943 188.038C361.943 186.534 362.356 185.779 363.227 184.816C363.086 184.461 362.623 182.995 363.369 181.103C364.507 180.748 367.125 182.58 367.125 182.58C368.214 182.273 369.384 182.115 370.544 182.115C371.703 182.115 372.873 182.273 373.962 182.58C373.962 182.58 376.58 180.742 377.718 181.103C378.464 183.001 378.001 184.461 377.86 184.816C378.731 185.784 379.264 186.539 379.264 188.038C379.264 193.315 376.058 193.736 373.015 194.08C373.516 194.513 373.94 195.333 373.94 196.618C373.94 198.461 373.924 200.741 373.924 201.19C373.924 201.545 374.174 201.977 374.866 201.852C380.309 200.036 384 194.846 384 188.781C384 181.196 377.876 175.438 370.326 175.438ZM362.291 194.299C362.22 194.354 362.237 194.48 362.329 194.584C362.416 194.671 362.542 194.709 362.612 194.638C362.683 194.584 362.667 194.458 362.574 194.354C362.487 194.266 362.362 194.228 362.291 194.299ZM361.703 193.856C361.665 193.927 361.72 194.015 361.828 194.07C361.916 194.124 362.024 194.108 362.063 194.031C362.101 193.96 362.046 193.873 361.937 193.818C361.828 193.785 361.741 193.802 361.703 193.856ZM363.467 195.803C363.38 195.874 363.412 196.038 363.538 196.142C363.663 196.268 363.821 196.284 363.892 196.197C363.962 196.126 363.93 195.962 363.821 195.858C363.701 195.732 363.538 195.716 363.467 195.803ZM362.846 194.999C362.759 195.054 362.759 195.196 362.846 195.322C362.933 195.448 363.08 195.502 363.151 195.448C363.238 195.377 363.238 195.234 363.151 195.109C363.075 194.983 362.933 194.928 362.846 194.999Z" fill="black" fill-opacity="0.5"/>
</g>
<path d="M223.94 356.32C226.325 356.482 226.835 356.423 226.835 356.903C226.835 357.88 223.616 357.883 223.616 356.978C223.616 356.729 223.777 356.519 223.94 356.32V356.32ZM225.312 350.625C223.727 350.625 223.655 352.796 225.275 352.796C226.872 352.796 226.833 350.625 225.312 350.625V350.625ZM241 343.906V361.094C241 361.715 240.752 362.311 240.31 362.751C239.868 363.191 239.268 363.438 238.643 363.438H221.357C220.732 363.438 220.132 363.191 219.69 362.751C219.248 362.311 219 361.715 219 361.094V343.906C219 343.285 219.248 342.689 219.69 342.249C220.132 341.809 220.732 341.562 221.357 341.562H238.643C239.268 341.562 239.868 341.809 240.31 342.249C240.752 342.689 241 343.285 241 343.906V343.906ZM229.853 347.291C229.853 347.998 230.264 348.408 230.975 348.408C231.699 348.408 232.111 347.998 232.111 347.291C232.111 346.583 231.7 346.201 230.976 346.201C230.265 346.201 229.853 346.584 229.853 347.291ZM228.781 349.521H226.348C225.12 349.202 222.343 349.285 222.343 351.804C222.343 352.722 222.804 353.367 223.416 353.665C222.645 354.367 222.28 354.697 222.28 355.166C222.28 355.501 222.417 355.812 222.829 355.984C222.392 356.395 222.142 356.691 222.142 357.25C222.143 358.23 223.004 358.799 225.262 358.799C227.434 358.799 228.693 357.993 228.693 356.566C228.693 354.775 227.307 354.841 224.039 354.643L224.451 353.987C225.286 354.219 228.094 354.292 228.094 351.916C228.094 351.345 227.857 350.948 227.633 350.662L228.781 350.575L228.781 349.521ZM232.923 354.885L232.284 354.798C232.097 354.773 232.085 354.749 232.085 354.549V349.4H229.502L229.365 350.405C230.138 350.676 230.199 350.642 230.199 350.901V354.551C230.199 354.825 230.184 354.774 229.365 354.886V355.866H232.921L232.923 354.885ZM237.857 355.381L237.52 354.289C235.51 355.039 235.661 353.683 235.661 353.472V350.507H237.52V349.266H235.761C235.62 349.266 235.663 349.389 235.663 347.38H234.475C234.338 348.732 233.902 349.278 232.805 349.402V350.507C233.811 350.507 233.779 350.465 233.779 350.631V353.881C233.779 355.284 234.34 355.879 235.825 355.879C236.535 355.879 237.32 355.643 237.857 355.381V355.381Z" fill="black" fill-opacity="0.5"/>
<g clip-path="url(#clip11)">
<path d="M218.716 188.012C218.346 187.554 217.604 187.818 217.603 188.41L217.95 199.886L225.72 197.113C225.714 197.115 218.716 188.012 218.716 188.012V188.012ZM218.097 205.673C218.113 206.199 218.47 206.661 218.978 206.819L237.436 212.441L217.944 199.888L218.097 205.673ZM225.714 197.115L237.441 212.439L236.815 193.152L225.714 197.115ZM248.129 194.954L244.585 190.379L237.441 212.439L248.168 196.4C248.467 195.955 248.445 195.372 248.129 194.954V194.954ZM237.581 181.279C237.212 180.82 236.47 181.085 236.469 181.676L236.809 193.154L244.579 190.381L237.581 181.279Z" fill="black" fill-opacity="0.5"/>
</g>
<g clip-path="url(#clip12)">
<path d="M37.5362 265.206C37.5297 265.121 37.5231 265.035 37.5231 264.95V264.943L37.5034 264.688V264.681C37.4341 263.921 37.3002 263.168 37.1031 262.431C37.1031 262.424 37.1031 262.424 37.0966 262.417L37.0375 262.199C37.0309 262.186 37.0309 262.172 37.0244 262.166C37.0047 262.1 36.985 262.028 36.9653 261.962C36.9587 261.949 36.9587 261.93 36.9522 261.917C36.9325 261.851 36.9128 261.785 36.8931 261.726C36.8866 261.707 36.88 261.693 36.8734 261.672C36.8537 261.606 36.8341 261.547 36.8078 261.481L36.7881 261.422C36.7684 261.363 36.7422 261.297 36.7225 261.238C36.7171 261.22 36.7105 261.201 36.7028 261.184C36.6766 261.125 36.6569 261.059 36.6306 261C36.6241 260.987 36.6175 260.967 36.6109 260.954C36.5847 260.888 36.5562 260.829 36.5322 260.764C36.5322 260.757 36.5256 260.751 36.5256 260.744C36.4403 260.534 36.3484 260.324 36.2522 260.121L36.2325 260.081C36.2062 260.027 36.1866 259.983 36.1603 259.937C36.1472 259.911 36.1341 259.878 36.1209 259.852C36.1012 259.806 36.075 259.766 36.0553 259.72C36.0356 259.687 36.0225 259.655 36.0006 259.622C35.9787 259.589 35.9547 259.543 35.935 259.497C35.9153 259.464 35.8956 259.425 35.8759 259.392C35.8562 259.359 35.83 259.313 35.8103 259.274C35.7908 259.236 35.7689 259.2 35.7447 259.165C35.725 259.125 35.6987 259.092 35.6791 259.055C35.6594 259.018 35.6331 258.983 35.6134 258.946C35.5937 258.909 35.5675 258.874 35.5478 258.841C35.5281 258.808 35.5019 258.762 35.4756 258.723C35.456 258.688 35.4341 258.656 35.41 258.624L35.3312 258.508C35.3117 258.474 35.2897 258.441 35.2656 258.409C35.2394 258.37 35.2066 258.324 35.1803 258.285C35.1606 258.258 35.1409 258.226 35.1212 258.199L35.0228 258.062C35.0031 258.035 34.99 258.016 34.9681 257.989C34.9134 257.917 34.8697 257.852 34.8172 257.786C34.4239 257.27 33.9942 256.783 33.5315 256.329C33.2186 256.003 32.8845 255.698 32.5312 255.416C32.3125 255.225 32.085 255.048 31.8487 254.878C31.4257 254.563 30.9755 254.286 30.5034 254.051C30.3722 253.979 30.2409 253.913 30.1097 253.847C29.144 253.375 28.1268 253.016 27.0784 252.778C26.9734 252.758 26.8684 252.732 26.7699 252.712H26.7634C26.7087 252.705 26.6649 252.692 26.6124 252.686C25.9268 252.557 25.2318 252.484 24.5343 252.467H23.953C23.117 252.477 22.284 252.569 21.4658 252.74C19.6288 253.128 18.0079 253.902 16.9316 254.873C16.8726 254.928 16.8266 254.965 16.8004 254.991L16.7741 255.018H16.7812L16.7747 255.024L16.7812 255.018C16.783 255.018 16.7847 255.017 16.7859 255.016C16.7871 255.015 16.7878 255.013 16.7878 255.011L16.7812 255.018C16.7848 255.014 16.7894 255.012 16.7944 255.011C17.595 254.532 18.7041 254.136 19.4981 253.941L19.8197 253.863C19.8394 253.856 19.8656 253.856 19.8853 253.85C19.9772 253.83 20.0691 253.81 20.1675 253.79C20.1806 253.79 20.2003 253.784 20.2134 253.784C23.7233 253.145 27.4639 254.195 30.0703 256.682C30.6325 257.216 31.1263 257.818 31.5403 258.473C33.2006 261.164 33.0431 264.55 31.7503 266.545C29.8669 269.443 25.6609 270.442 23.055 267.903C22.1805 267.055 21.6779 265.895 21.6572 264.677C21.6475 264.093 21.7639 263.515 21.9984 262.981C22.0903 262.771 22.7137 261.577 22.9959 261.637C22.2806 261.486 20.9424 261.781 20.004 263.178C19.164 264.432 19.2099 266.361 19.7305 267.733C19.3997 267.056 19.1761 266.332 19.0677 265.587C18.3984 261.072 21.4362 257.219 24.2253 256.262C22.7225 254.949 18.9496 255.042 16.1474 257.102C14.5134 258.305 13.3458 260.009 12.7289 262.043C12.8208 260.902 13.2539 259.195 14.1398 257.456C13.2014 257.942 12.007 259.48 11.4164 260.895C10.5633 262.942 10.268 265.39 10.537 267.719C10.5567 267.897 10.5764 268.067 10.5961 268.244C11.6855 274.649 17.268 279.531 23.9825 279.531C31.4796 279.531 37.5625 273.448 37.5625 265.945C37.5559 265.698 37.5494 265.449 37.5362 265.206Z" fill="black" fill-opacity="0.5"/>
</g>
<path d="M60.1767 203.863L61.1315 203.257L64.3687 208.357C64.8062 209.046 64.9407 209.718 64.7721 210.371C64.6069 211.021 64.1796 211.566 63.4903 212.003C62.7747 212.457 62.1011 212.628 61.4697 212.515C60.8383 212.402 60.3133 212.016 59.8946 211.357L60.8444 210.754C61.1061 211.166 61.4223 211.416 61.7931 211.505C62.1672 211.591 62.5686 211.498 62.9974 211.226C63.3898 210.977 63.628 210.653 63.7117 210.252C63.7988 209.85 63.7027 209.425 63.4234 208.978L60.1767 203.863ZM70.482 207.427C70.3623 207.355 70.2001 207.194 69.9955 206.944C69.8505 207.656 69.4829 208.2 68.8925 208.574C68.3648 208.909 67.8369 209.036 67.3088 208.955C66.782 208.868 66.373 208.596 66.0821 208.137C65.7283 207.58 65.6652 207.014 65.8926 206.439C66.1213 205.859 66.6199 205.325 67.3883 204.838L68.2788 204.272L68.0119 203.852C67.8088 203.532 67.552 203.339 67.2414 203.272C66.9287 203.202 66.586 203.286 66.2134 203.522C65.8869 203.729 65.6654 203.986 65.5491 204.291C65.4328 204.596 65.449 204.865 65.5976 205.1L64.6775 205.684C64.5079 205.417 64.4386 205.1 64.4696 204.733C64.5018 204.361 64.6335 204 64.8646 203.649C65.099 203.297 65.4108 202.997 65.7999 202.75C66.4167 202.359 66.9982 202.207 67.5446 202.295C68.0888 202.38 68.5392 202.689 68.8957 203.221L70.4594 205.685C70.7713 206.177 71.082 206.528 71.3915 206.738L71.4418 206.817L70.482 207.427ZM68.5206 207.693C68.8075 207.511 69.0325 207.264 69.1955 206.952C69.3586 206.641 69.4225 206.329 69.3872 206.019L68.6901 204.92L67.9728 205.376C66.8515 206.087 66.4991 206.771 66.9156 207.428C67.0978 207.715 67.3357 207.878 67.6296 207.918C67.9234 207.959 68.2204 207.883 68.5206 207.693ZM73.5872 203.714L72.3038 198.761L73.2388 198.168L74.7167 204.739L74.0192 205.182L68.6825 201.06L69.6175 200.466L73.5872 203.714ZM80.7422 200.914C80.6224 200.842 80.4603 200.682 80.2556 200.432C80.1107 201.144 79.743 201.687 79.1527 202.062C78.625 202.397 78.0971 202.524 77.569 202.443C77.0421 202.356 76.6332 202.083 76.3422 201.625C75.9885 201.068 75.9253 200.502 76.1528 199.927C76.3815 199.347 76.88 198.813 77.6485 198.325L78.539 197.76L78.2721 197.34C78.069 197.02 77.8122 196.827 77.5016 196.76C77.1889 196.69 76.8462 196.773 76.4735 197.01C76.147 197.217 75.9256 197.473 75.8093 197.779C75.693 198.084 75.7092 198.353 75.8578 198.587L74.9376 199.172C74.7681 198.904 74.6988 198.587 74.7298 198.221C74.762 197.849 74.8936 197.488 75.1247 197.137C75.3591 196.785 75.6709 196.485 76.0601 196.238C76.6768 195.847 77.2584 195.695 77.8047 195.783C78.349 195.868 78.7994 196.177 79.1559 196.709L80.7195 199.173C81.0314 199.664 81.3422 200.015 81.6517 200.226L81.7019 200.305L80.7422 200.914ZM78.7807 201.181C79.0677 200.999 79.2926 200.752 79.4557 200.44C79.6187 200.128 79.6826 199.817 79.6473 199.506L78.9503 198.408L78.233 198.864C77.1116 199.575 76.7592 200.259 77.1758 200.916C77.3579 201.202 77.5959 201.366 77.8898 201.406C78.1836 201.446 78.4806 201.371 78.7807 201.181ZM85.1641 196.116C85.0071 195.869 84.7917 195.737 84.5179 195.721C84.2452 195.7 83.845 195.787 83.3172 195.984C82.7927 196.178 82.3496 196.292 81.9879 196.328C81.6296 196.361 81.3237 196.323 81.0704 196.216C80.8204 196.106 80.6116 195.92 80.4442 195.656C80.1658 195.217 80.115 194.729 80.2918 194.191C80.4719 193.651 80.8505 193.198 81.4276 192.831C82.0345 192.446 82.6253 192.291 83.2001 192.366C83.7783 192.438 84.2223 192.719 84.5321 193.207L83.6119 193.791C83.4528 193.54 83.2085 193.392 82.879 193.347C82.5528 193.299 82.2281 193.378 81.9049 193.583C81.5718 193.795 81.3573 194.033 81.2614 194.297C81.1655 194.562 81.1919 194.811 81.3405 195.045C81.4808 195.266 81.6739 195.377 81.9199 195.378C82.1658 195.38 82.5488 195.287 83.0688 195.1C83.5922 194.911 84.0406 194.798 84.4143 194.76C84.7879 194.722 85.1062 194.76 85.3691 194.875C85.6332 194.985 85.8563 195.184 86.0384 195.471C86.342 195.949 86.3946 196.455 86.1962 196.988C85.9957 197.517 85.5904 197.976 84.9803 198.363C84.5516 198.635 84.1241 198.8 83.698 198.858C83.2719 198.915 82.8791 198.869 82.5194 198.718C82.161 198.561 81.8813 198.325 81.6804 198.008L82.5956 197.427C82.8067 197.723 83.0837 197.89 83.4264 197.927C83.7703 197.958 84.1302 197.855 84.5062 197.616C84.8525 197.396 85.0855 197.151 85.2054 196.881C85.3265 196.605 85.3127 196.35 85.1641 196.116ZM89.9083 194.187C90.2348 193.98 90.4573 193.7 90.5758 193.347C90.6942 192.995 90.6725 192.661 90.5105 192.348L91.3762 191.798C91.5544 192.116 91.6341 192.474 91.6153 192.875C91.5966 193.276 91.4763 193.662 91.2545 194.034C91.0359 194.404 90.7453 194.704 90.3825 194.934C89.6536 195.397 88.9193 195.523 88.1795 195.312C87.441 195.096 86.8038 194.566 86.2679 193.722L86.1706 193.569C85.8398 193.048 85.6414 192.524 85.5752 191.996C85.509 191.469 85.5828 190.981 85.7967 190.53C86.0138 190.078 86.3664 189.697 86.8545 189.387C87.4548 189.006 88.0669 188.87 88.6908 188.978C89.318 189.084 89.827 189.416 90.2176 189.973L89.3518 190.522C89.1057 190.193 88.7937 189.993 88.416 189.923C88.0395 189.847 87.6781 189.919 87.3318 190.139C86.8668 190.434 86.6124 190.832 86.5687 191.331C86.5262 191.825 86.7058 192.389 87.1078 193.022L87.2176 193.196C87.6091 193.812 88.0375 194.207 88.5029 194.379C88.9682 194.55 89.4367 194.487 89.9083 194.187ZM93.187 186.659C93.0339 186.723 92.8765 186.807 92.7149 186.91C92.1146 187.291 91.8696 187.805 91.9796 188.452L94.3911 192.251L93.4759 192.832L90.0785 187.48L90.969 186.914L91.3763 187.523C91.3729 186.855 91.6466 186.345 92.1974 185.996C92.3754 185.883 92.5253 185.82 92.647 185.808L93.187 186.659ZM97.9035 190.022L96.9883 190.603L93.5909 185.25L94.5061 184.669L97.9035 190.022ZM92.6155 183.878C92.5213 183.729 92.4863 183.576 92.5105 183.417C92.5379 183.256 92.6407 183.119 92.8188 183.006C92.9969 182.893 93.1646 182.858 93.3218 182.902C93.479 182.945 93.6048 183.041 93.6989 183.19C93.7931 183.338 93.8255 183.491 93.7959 183.649C93.7664 183.806 93.6626 183.942 93.4845 184.055C93.3064 184.168 93.1398 184.204 92.9846 184.164C92.8328 184.121 92.7097 184.026 92.6155 183.878ZM102.233 183.603C102.75 184.417 102.981 185.192 102.924 185.926C102.867 186.661 102.521 187.23 101.884 187.634C101.235 188.047 100.593 188.165 99.9583 187.989L101.594 190.567L100.679 191.147L95.9754 183.737L96.8114 183.206L97.2327 183.772C97.3124 183.073 97.6836 182.514 98.3465 182.093C98.9896 181.685 99.6514 181.605 100.332 181.853C101.015 182.099 101.632 182.654 102.18 183.519L102.233 183.603ZM101.252 184.08C100.869 183.476 100.438 183.081 99.9589 182.895C99.4798 182.709 99.0159 182.758 98.5674 183.042C98.0133 183.394 97.7537 183.904 97.7886 184.571L99.4119 187.128C99.9955 187.443 100.569 187.421 101.133 187.063C101.572 186.785 101.81 186.391 101.847 185.881C101.886 185.366 101.688 184.766 101.252 184.08ZM102.084 178.042L102.906 179.338L103.905 178.703L104.354 179.411L103.355 180.045L105.462 183.365C105.598 183.579 105.745 183.712 105.903 183.765C106.059 183.814 106.245 183.77 106.459 183.634C106.564 183.567 106.697 183.455 106.857 183.298L107.328 184.04C107.129 184.259 106.915 184.441 106.688 184.585C106.279 184.845 105.892 184.917 105.527 184.801C105.163 184.686 104.836 184.401 104.547 183.946L102.44 180.626L101.465 181.245L101.016 180.537L101.991 179.919L101.168 178.623L102.084 178.042Z" fill="black" fill-opacity="0.5"/>
<defs>
<clipPath id="clip0">
<rect width="27.5326" height="67.4418" fill="white" transform="translate(161.344 233) rotate(24.8516)"/>
</clipPath>
<clipPath id="clip1">
<rect width="14.9088" height="29.8175" fill="white" transform="translate(157.344 250) rotate(24.8516)"/>
</clipPath>
<clipPath id="clip2">
<rect width="20.3301" height="27.1068" fill="white" transform="translate(365.553 336) rotate(30)"/>
</clipPath>
<clipPath id="clip3">
<rect width="21" height="24" fill="white" transform="translate(131 13.2746) rotate(-26.209)"/>
</clipPath>
<clipPath id="clip4">
<rect width="16" height="22" fill="white" transform="translate(291.554 8) rotate(28.6662)"/>
</clipPath>
<clipPath id="clip5">
<rect width="25" height="20" fill="white" transform="matrix(-0.947736 -0.319056 -0.319056 0.947736 372.075 59.9764)"/>
</clipPath>
<clipPath id="clip6">
<rect width="19" height="17" fill="white" transform="translate(9 125.5) rotate(-30)"/>
</clipPath>
<clipPath id="clip7">
<rect width="16" height="21" fill="white" transform="translate(283 129.997) rotate(-29.9856)"/>
</clipPath>
<clipPath id="clip8">
<rect width="22.8527" height="26.197" fill="white" transform="translate(137 136.224) rotate(-57.2662)"/>
</clipPath>
<clipPath id="clip9">
<rect width="30" height="30" fill="white" transform="translate(0 8.90729) rotate(-17.2721)"/>
</clipPath>
<clipPath id="clip10">
<rect width="27" height="28" fill="white" transform="translate(357 175)"/>
</clipPath>
<clipPath id="clip11">
<rect width="32" height="32" fill="white" transform="translate(212 188.757) rotate(-19.6429)"/>
</clipPath>
<clipPath id="clip12">
<rect width="28" height="28" fill="white" transform="translate(10 252)"/>
</clipPath>
</defs>
</svg>
